<svg width="42" height="15" viewBox="0 0 42 15" fill="none" xmlns="http://www.w3.org/2000/svg">
<path d="M13.3523 4V1.09091H14.3352C14.5625 1.09091 14.7491 1.12973 14.8949 1.20739C15.0407 1.28409 15.1487 1.38968 15.2188 1.52415C15.2888 1.65862 15.3239 1.81155 15.3239 1.98295C15.3239 2.15436 15.2888 2.30634 15.2188 2.43892C15.1487 2.5715 15.0412 2.67566 14.8963 2.75142C14.7514 2.82623 14.5663 2.86364 14.3409 2.86364H13.5455V2.54545H14.3295C14.4848 2.54545 14.6098 2.52273 14.7045 2.47727C14.8002 2.43182 14.8693 2.36742 14.9119 2.28409C14.9555 2.19981 14.9773 2.09943 14.9773 1.98295C14.9773 1.86648 14.9555 1.76468 14.9119 1.67756C14.8684 1.59044 14.7988 1.5232 14.7031 1.47585C14.6075 1.42756 14.4811 1.40341 14.3239 1.40341H13.7045V4H13.3523ZM14.7216 2.69318L15.4375 4H15.0284L14.3239 2.69318H14.7216ZM16.7567 4.04545C16.5465 4.04545 16.3652 3.99905 16.2127 3.90625C16.0612 3.8125 15.9442 3.68182 15.8619 3.5142C15.7804 3.34564 15.7397 3.14962 15.7397 2.92614C15.7397 2.70265 15.7804 2.50568 15.8619 2.33523C15.9442 2.16383 16.0588 2.0303 16.2056 1.93466C16.3533 1.83807 16.5257 1.78977 16.7227 1.78977C16.8363 1.78977 16.9485 1.80871 17.0593 1.84659C17.1701 1.88447 17.271 1.94602 17.3619 2.03125C17.4528 2.11553 17.5252 2.22727 17.5792 2.36648C17.6332 2.50568 17.6602 2.67708 17.6602 2.88068V3.02273H15.9783V2.73295H17.3192C17.3192 2.60985 17.2946 2.5 17.2454 2.40341C17.1971 2.30682 17.128 2.23059 17.038 2.17472C16.949 2.11884 16.8439 2.09091 16.7227 2.09091C16.5891 2.09091 16.4736 2.12405 16.3761 2.19034C16.2795 2.25568 16.2051 2.34091 16.1531 2.44602C16.101 2.55114 16.0749 2.66383 16.0749 2.78409V2.97727C16.0749 3.14205 16.1033 3.28172 16.1602 3.39631C16.2179 3.50994 16.2979 3.59659 16.4002 3.65625C16.5025 3.71496 16.6213 3.74432 16.7567 3.74432C16.8448 3.74432 16.9244 3.73201 16.9954 3.70739C17.0674 3.68182 17.1294 3.64394 17.1815 3.59375C17.2335 3.54261 17.2738 3.47917 17.3022 3.40341L17.6261 3.49432C17.592 3.60417 17.5347 3.70076 17.4542 3.78409C17.3737 3.86648 17.2743 3.93087 17.1559 3.97727C17.0375 4.02273 16.9045 4.04545 16.7567 4.04545ZM18.8121 4.05114C18.6739 4.05114 18.5484 4.02509 18.4357 3.97301C18.323 3.91998 18.2335 3.84375 18.1673 3.74432C18.101 3.64394 18.0678 3.52273 18.0678 3.38068C18.0678 3.25568 18.0924 3.15436 18.1417 3.0767C18.1909 2.99811 18.2567 2.93655 18.3391 2.89205C18.4215 2.84754 18.5124 2.81439 18.6119 2.79261C18.7122 2.76989 18.8131 2.75189 18.9144 2.73864C19.047 2.72159 19.1545 2.70881 19.2369 2.70028C19.3202 2.69081 19.3808 2.67519 19.4187 2.65341C19.4575 2.63163 19.4769 2.59375 19.4769 2.53977V2.52841C19.4769 2.38826 19.4386 2.27936 19.3619 2.2017C19.2861 2.12405 19.171 2.08523 19.0167 2.08523C18.8567 2.08523 18.7312 2.12027 18.6403 2.19034C18.5494 2.26042 18.4854 2.33523 18.4485 2.41477L18.1303 2.30114C18.1871 2.16856 18.2629 2.06534 18.3576 1.99148C18.4532 1.91667 18.5574 1.86458 18.6701 1.83523C18.7837 1.80492 18.8955 1.78977 19.0053 1.78977C19.0754 1.78977 19.1559 1.7983 19.2468 1.81534C19.3387 1.83144 19.4272 1.86506 19.5124 1.91619C19.5986 1.96733 19.6701 2.04451 19.7269 2.14773C19.7837 2.25095 19.8121 2.3892 19.8121 2.5625V4H19.4769V3.70455H19.4599C19.4371 3.75189 19.3993 3.80256 19.3462 3.85653C19.2932 3.91051 19.2227 3.95644 19.1346 3.99432C19.0465 4.0322 18.939 4.05114 18.8121 4.05114ZM18.8633 3.75C18.9959 3.75 19.1076 3.72396 19.1985 3.67188C19.2904 3.61979 19.3595 3.55256 19.4059 3.47017C19.4532 3.38778 19.4769 3.30114 19.4769 3.21023V2.90341C19.4627 2.92045 19.4315 2.93608 19.3832 2.95028C19.3358 2.96354 19.2809 2.97538 19.2184 2.9858C19.1568 2.99527 19.0967 3.00379 19.038 3.01136C18.9802 3.01799 18.9334 3.02367 18.8974 3.02841C18.8103 3.03977 18.7288 3.05824 18.6531 3.08381C18.5782 3.10843 18.5176 3.14583 18.4712 3.19602C18.4258 3.24527 18.4031 3.3125 18.4031 3.39773C18.4031 3.5142 18.4461 3.60227 18.5323 3.66193C18.6194 3.72064 18.7298 3.75 18.8633 3.75ZM21.2479 4.04545C21.0661 4.04545 20.9055 3.99953 20.7663 3.90767C20.6271 3.81487 20.5182 3.68419 20.4396 3.51562C20.361 3.34612 20.3217 3.14583 20.3217 2.91477C20.3217 2.68561 20.361 2.48674 20.4396 2.31818C20.5182 2.14962 20.6276 2.01941 20.7678 1.92756C20.9079 1.8357 21.0698 1.78977 21.2536 1.78977C21.3956 1.78977 21.5078 1.81345 21.5902 1.8608C21.6735 1.9072 21.737 1.96023 21.7805 2.01989C21.825 2.0786 21.8596 2.12689 21.8842 2.16477H21.9126V1.09091H22.2479V4H21.924V3.66477H21.8842C21.8596 3.70455 21.8246 3.75473 21.7791 3.81534C21.7337 3.875 21.6688 3.9285 21.5845 3.97585C21.5002 4.02225 21.388 4.04545 21.2479 4.04545ZM21.2933 3.74432C21.4278 3.74432 21.5414 3.70928 21.6342 3.6392C21.727 3.56818 21.7976 3.47017 21.8459 3.34517C21.8942 3.21922 21.9183 3.07386 21.9183 2.90909C21.9183 2.74621 21.8946 2.60369 21.8473 2.48153C21.8 2.35843 21.7299 2.26278 21.6371 2.1946C21.5443 2.12547 21.4297 2.09091 21.2933 2.09091C21.1513 2.09091 21.0329 2.12737 20.9382 2.20028C20.8445 2.27225 20.7739 2.37027 20.7266 2.49432C20.6802 2.61742 20.657 2.75568 20.657 2.90909C20.657 3.06439 20.6806 3.20549 20.728 3.33239C20.7763 3.45833 20.8473 3.55871 20.9411 3.63352C21.0357 3.70739 21.1532 3.74432 21.2933 3.74432ZM22.9084 4V1.81818H23.2436V4H22.9084ZM23.0788 1.45455C23.0135 1.45455 22.9571 1.43229 22.9098 1.38778C22.8634 1.34328 22.8402 1.28977 22.8402 1.22727C22.8402 1.16477 22.8634 1.11127 22.9098 1.06676C22.9571 1.02225 23.0135 1 23.0788 1C23.1442 1 23.2 1.02225 23.2464 1.06676C23.2938 1.11127 23.3175 1.16477 23.3175 1.22727C23.3175 1.28977 23.2938 1.34328 23.2464 1.38778C23.2 1.43229 23.1442 1.45455 23.0788 1.45455ZM24.1928 2.6875V4H23.8576V1.81818H24.1815V2.15909H24.2099C24.261 2.0483 24.3387 1.95928 24.4428 1.89205C24.547 1.82386 24.6815 1.78977 24.8462 1.78977C24.994 1.78977 25.1232 1.82008 25.234 1.88068C25.3448 1.94034 25.431 2.03125 25.4925 2.15341C25.5541 2.27462 25.5849 2.42803 25.5849 2.61364V4H25.2496V2.63636C25.2496 2.46496 25.2051 2.33144 25.1161 2.2358C25.0271 2.1392 24.9049 2.09091 24.7496 2.09091C24.6426 2.09091 24.547 2.11411 24.4627 2.16051C24.3794 2.20691 24.3136 2.27462 24.2653 2.36364C24.217 2.45265 24.1928 2.56061 24.1928 2.6875ZM27.0781 4.86364C26.9162 4.86364 26.777 4.8428 26.6605 4.80114C26.544 4.76042 26.447 4.70644 26.3693 4.6392C26.2926 4.57292 26.2315 4.50189 26.1861 4.42614L26.4531 4.23864C26.4834 4.27841 26.5218 4.32386 26.5682 4.375C26.6146 4.42708 26.678 4.47206 26.7585 4.50994C26.84 4.54877 26.9465 4.56818 27.0781 4.56818C27.2543 4.56818 27.3996 4.52557 27.5142 4.44034C27.6288 4.35511 27.6861 4.22159 27.6861 4.03977V3.59659H27.6577C27.633 3.63636 27.598 3.68561 27.5526 3.74432C27.508 3.80208 27.4437 3.85369 27.3594 3.89915C27.276 3.94366 27.1634 3.96591 27.0213 3.96591C26.8452 3.96591 26.687 3.92424 26.5469 3.84091C26.4077 3.75758 26.2973 3.63636 26.2159 3.47727C26.1354 3.31818 26.0952 3.125 26.0952 2.89773C26.0952 2.67424 26.1345 2.47964 26.2131 2.31392C26.2917 2.14725 26.401 2.01847 26.5412 1.92756C26.6813 1.8357 26.8433 1.78977 27.027 1.78977C27.169 1.78977 27.2817 1.81345 27.3651 1.8608C27.4493 1.9072 27.5137 1.96023 27.5582 2.01989C27.6037 2.0786 27.6387 2.12689 27.6634 2.16477H27.6974V1.81818H28.0213V4.0625C28.0213 4.25 27.9787 4.40246 27.8935 4.51989C27.8092 4.63826 27.6955 4.72491 27.5526 4.77983C27.4105 4.8357 27.2524 4.86364 27.0781 4.86364ZM27.0668 3.66477C27.2012 3.66477 27.3149 3.634 27.4077 3.57244C27.5005 3.51089 27.571 3.42235 27.6193 3.30682C27.6676 3.19129 27.6918 3.05303 27.6918 2.89205C27.6918 2.73485 27.6681 2.59612 27.6207 2.47585C27.5734 2.35559 27.5033 2.26136 27.4105 2.19318C27.3177 2.125 27.2031 2.09091 27.0668 2.09091C26.9247 2.09091 26.8063 2.12689 26.7116 2.19886C26.6179 2.27083 26.5473 2.36742 26.5 2.48864C26.4536 2.60985 26.4304 2.74432 26.4304 2.89205C26.4304 3.04356 26.4541 3.17756 26.5014 3.29403C26.5497 3.40956 26.6207 3.50047 26.7145 3.56676C26.8092 3.6321 26.9266 3.66477 27.0668 3.66477Z" fill="#6D4C41"/>
<path d="M0.860795 12V3.27273H4.13352C4.80398 3.27273 5.36648 3.3892 5.82102 3.62216C6.27841 3.85511 6.62358 4.18182 6.85653 4.60227C7.09233 5.01989 7.21023 5.5071 7.21023 6.06392C7.21023 6.62358 7.09091 7.10937 6.85227 7.52131C6.61648 7.9304 6.26847 8.24716 5.80824 8.47159C5.34801 8.69318 4.78267 8.80398 4.11222 8.80398H1.78125V7.49148H3.89915C4.29119 7.49148 4.61222 7.4375 4.86222 7.32955C5.11222 7.21875 5.29688 7.05824 5.41619 6.84801C5.53835 6.63494 5.59943 6.37358 5.59943 6.06392C5.59943 5.75426 5.53835 5.49006 5.41619 5.27131C5.29403 5.04972 5.10795 4.8821 4.85795 4.76847C4.60795 4.65199 4.28551 4.59375 3.89062 4.59375H2.44176V12H0.860795ZM5.36932 8.04545L7.52983 12H5.76562L3.64347 8.04545H5.36932ZM11.4013 12.1278C10.745 12.1278 10.1783 11.9915 9.70099 11.7188C9.22656 11.4432 8.86151 11.054 8.60582 10.5511C8.35014 10.0455 8.2223 9.45028 8.2223 8.76562C8.2223 8.09233 8.35014 7.50142 8.60582 6.9929C8.86435 6.48153 9.22514 6.08381 9.68821 5.79972C10.1513 5.51278 10.6953 5.36932 11.3203 5.36932C11.7237 5.36932 12.1044 5.43466 12.4624 5.56534C12.8232 5.69318 13.1413 5.89205 13.4169 6.16193C13.6953 6.43182 13.9141 6.77557 14.0732 7.19318C14.2322 7.60795 14.3118 8.10227 14.3118 8.67614V9.14915H8.94673V8.10938H12.8331C12.8303 7.81392 12.7663 7.55114 12.6413 7.32102C12.5163 7.08807 12.3416 6.90483 12.1172 6.77131C11.8956 6.63778 11.6371 6.57102 11.3416 6.57102C11.0263 6.57102 10.7493 6.64773 10.5107 6.80114C10.272 6.9517 10.0859 7.15057 9.95241 7.39773C9.82173 7.64205 9.75497 7.91051 9.75213 8.20312V9.1108C9.75213 9.49148 9.82173 9.81818 9.96094 10.0909C10.1001 10.3608 10.2947 10.5682 10.5447 10.7131C10.7947 10.8551 11.0874 10.9261 11.4226 10.9261C11.647 10.9261 11.8501 10.8949 12.032 10.8324C12.2138 10.767 12.3714 10.6719 12.505 10.5469C12.6385 10.4219 12.7393 10.267 12.8075 10.0824L14.2479 10.2443C14.157 10.625 13.9837 10.9574 13.728 11.2415C13.4751 11.5227 13.1513 11.7415 12.7564 11.8977C12.3615 12.0511 11.9098 12.1278 11.4013 12.1278ZM18.4719 12.1278C17.8185 12.1278 17.2575 11.9844 16.7887 11.6974C16.3228 11.4105 15.9634 11.0142 15.7106 10.5085C15.4606 10 15.3356 9.41477 15.3356 8.75284C15.3356 8.08807 15.4634 7.50142 15.7191 6.9929C15.9748 6.48153 16.3356 6.08381 16.8015 5.79972C17.2702 5.51278 17.8242 5.36932 18.4634 5.36932C18.9947 5.36932 19.4648 5.46733 19.8739 5.66335C20.2859 5.85653 20.614 6.13068 20.8583 6.4858C21.1026 6.83807 21.2418 7.25 21.2759 7.72159H19.8015C19.7418 7.40625 19.5998 7.14347 19.3754 6.93324C19.1538 6.72017 18.8569 6.61364 18.4847 6.61364C18.1694 6.61364 17.8924 6.69886 17.6538 6.86932C17.4151 7.03693 17.229 7.27841 17.0955 7.59375C16.9648 7.90909 16.8995 8.28693 16.8995 8.72727C16.8995 9.1733 16.9648 9.55682 17.0955 9.87784C17.2262 10.196 17.4094 10.4418 17.6452 10.6151C17.8839 10.7855 18.1637 10.8707 18.4847 10.8707C18.712 10.8707 18.9151 10.8281 19.0941 10.7429C19.2759 10.6548 19.4279 10.5284 19.5501 10.3636C19.6722 10.1989 19.756 9.99858 19.8015 9.76278H21.2759C21.239 10.2259 21.1026 10.6364 20.8668 10.9943C20.631 11.3494 20.31 11.6278 19.9038 11.8295C19.4975 12.0284 19.0202 12.1278 18.4719 12.1278ZM25.3977 12.1278C24.7585 12.1278 24.2045 11.9872 23.7358 11.706C23.267 11.4247 22.9034 11.0312 22.6449 10.5256C22.3892 10.0199 22.2614 9.42898 22.2614 8.75284C22.2614 8.0767 22.3892 7.48437 22.6449 6.97585C22.9034 6.46733 23.267 6.07244 23.7358 5.79119C24.2045 5.50994 24.7585 5.36932 25.3977 5.36932C26.0369 5.36932 26.5909 5.50994 27.0597 5.79119C27.5284 6.07244 27.8906 6.46733 28.1463 6.97585C28.4048 7.48437 28.5341 8.0767 28.5341 8.75284C28.5341 9.42898 28.4048 10.0199 28.1463 10.5256C27.8906 11.0312 27.5284 11.4247 27.0597 11.706C26.5909 11.9872 26.0369 12.1278 25.3977 12.1278ZM25.4062 10.892C25.7528 10.892 26.0426 10.7969 26.2756 10.6065C26.5085 10.4134 26.6818 10.1548 26.7955 9.83097C26.9119 9.5071 26.9702 9.14631 26.9702 8.74858C26.9702 8.34801 26.9119 7.9858 26.7955 7.66193C26.6818 7.33523 26.5085 7.07528 26.2756 6.8821C26.0426 6.68892 25.7528 6.59233 25.4062 6.59233C25.0511 6.59233 24.7557 6.68892 24.5199 6.8821C24.2869 7.07528 24.1122 7.33523 23.9957 7.66193C23.8821 7.9858 23.8253 8.34801 23.8253 8.74858C23.8253 9.14631 23.8821 9.5071 23.9957 9.83097C24.1122 10.1548 24.2869 10.4134 24.5199 10.6065C24.7557 10.7969 25.0511 10.892 25.4062 10.892ZM29.8434 12V5.45455H31.3391V6.54545H31.4073C31.5266 6.16761 31.7312 5.87642 32.021 5.67188C32.3136 5.46449 32.6474 5.3608 33.0224 5.3608C33.1076 5.3608 33.2028 5.36506 33.3079 5.37358C33.4158 5.37926 33.5053 5.3892 33.5763 5.40341V6.82244C33.511 6.79972 33.4073 6.77983 33.2653 6.76278C33.1261 6.7429 32.9911 6.73295 32.8604 6.73295C32.5792 6.73295 32.3263 6.79403 32.1019 6.91619C31.8803 7.03551 31.7056 7.2017 31.5778 7.41477C31.4499 7.62784 31.386 7.87358 31.386 8.15199V12H29.8434ZM36.7607 12.1151C36.2464 12.1151 35.7862 11.983 35.38 11.7188C34.9737 11.4545 34.6527 11.071 34.4169 10.5682C34.1811 10.0653 34.0632 9.45455 34.0632 8.7358C34.0632 8.00852 34.1825 7.39489 34.4212 6.89489C34.6626 6.39205 34.9879 6.01278 35.397 5.7571C35.8061 5.49858 36.2621 5.36932 36.7649 5.36932C37.1484 5.36932 37.4638 5.43466 37.7109 5.56534C37.9581 5.69318 38.1541 5.84801 38.299 6.02983C38.4439 6.20881 38.5561 6.37784 38.6357 6.53693H38.6996V3.27273H40.2464V12H38.7294V10.9688H38.6357C38.5561 11.1278 38.4411 11.2969 38.2905 11.4759C38.1399 11.652 37.9411 11.8026 37.6939 11.9276C37.4467 12.0526 37.1357 12.1151 36.7607 12.1151ZM37.1911 10.8494C37.5178 10.8494 37.7962 10.7614 38.0263 10.5852C38.2564 10.4062 38.4311 10.1577 38.5504 9.83949C38.6697 9.52131 38.7294 9.15057 38.7294 8.72727C38.7294 8.30398 38.6697 7.93608 38.5504 7.62358C38.4339 7.31108 38.2607 7.06818 38.0305 6.89489C37.8033 6.72159 37.5234 6.63494 37.1911 6.63494C36.8473 6.63494 36.5604 6.72443 36.3303 6.90341C36.1001 7.08239 35.9268 7.32955 35.8104 7.64489C35.6939 7.96023 35.6357 8.32102 35.6357 8.72727C35.6357 9.13636 35.6939 9.50142 35.8104 9.82244C35.9297 10.1406 36.1044 10.392 36.3345 10.5767C36.5675 10.7585 36.853 10.8494 37.1911 10.8494Z" fill="#6D4C41"/>
</svg>
