<svg width="19" height="18" viewBox="0 0 19 18" fill="none" xmlns="http://www.w3.org/2000/svg">
<path d="M9.47266 0C11.1854 0 12.7694 0.333328 14.2248 0.999985C15.6803 1.66664 16.8309 2.57316 17.6766 3.71953C18.5224 4.86586 18.9453 6.11629 18.9453 7.47078C18.9453 8.82524 18.5224 10.0774 17.6766 11.2273C16.8309 12.3772 15.682 13.2855 14.2301 13.9521C12.7782 14.6188 11.1924 14.9521 9.47266 14.9521C8.92996 14.9521 8.36961 14.9133 7.79168 14.8357C5.28254 16.5782 3.94695 17.46 3.78484 17.4812C3.7073 17.5094 3.63328 17.5059 3.56281 17.4706C3.53461 17.4495 3.51348 17.4212 3.49937 17.3859C3.48527 17.3507 3.47824 17.3189 3.47824 17.2907V17.2484C3.52055 16.9732 3.84121 15.8269 4.44031 13.8093C3.08002 13.1321 1.9999 12.2344 1.19994 11.1162C0.39998 9.99809 0 8.78293 0 7.47078C0 6.11629 0.422887 4.86586 1.26866 3.71953C2.11443 2.57316 3.26503 1.66664 4.72047 0.999985C6.1759 0.333328 7.75996 0 9.47266 0Z" fill="black"/>
</svg>
