<svg width="25" height="25" viewBox="0 0 25 25" fill="none" xmlns="http://www.w3.org/2000/svg">
<mask id="mask0_267_3454" style="mask-type:alpha" maskUnits="userSpaceOnUse" x="0" y="0" width="25" height="25">
<rect x="0.214844" y="0.0939941" width="24" height="24" fill="#D9D9D9"/>
</mask>
<g mask="url(#mask0_267_3454)">
<path d="M12.2148 21.094L10.7648 19.794C9.08151 18.2774 7.68984 16.969 6.58984 15.869C5.48984 14.769 4.61484 13.7815 3.96484 12.9065C3.31484 12.0315 2.86068 11.2274 2.60234 10.494C2.34401 9.76069 2.21484 9.01069 2.21484 8.24402C2.21484 6.67735 2.73984 5.36902 3.78984 4.31902C4.83984 3.26902 6.14818 2.74402 7.71484 2.74402C8.58151 2.74402 9.40651 2.92735 10.1898 3.29402C10.9732 3.66069 11.6482 4.17735 12.2148 4.84402C12.7815 4.17735 13.4565 3.66069 14.2398 3.29402C15.0232 2.92735 15.8482 2.74402 16.7148 2.74402C18.2815 2.74402 19.5898 3.26902 20.6398 4.31902C21.6898 5.36902 22.2148 6.67735 22.2148 8.24402C22.2148 9.01069 22.0857 9.76069 21.8273 10.494C21.569 11.2274 21.1148 12.0315 20.4648 12.9065C19.8148 13.7815 18.9398 14.769 17.8398 15.869C16.7398 16.969 15.3482 18.2774 13.6648 19.794L12.2148 21.094Z" fill="#1C1B1F"/>
</g>
</svg>
