<svg width="25" height="25" viewBox="0 0 25 25" fill="none" xmlns="http://www.w3.org/2000/svg">
<mask id="mask0_267_3445" style="mask-type:alpha" maskUnits="userSpaceOnUse" x="0" y="0" width="25" height="25">
<rect x="0.593018" y="0.905945" width="24" height="24" fill="#D9D9D9"/>
</mask>
<g mask="url(#mask0_267_3445)">
<path d="M12.593 21.906L11.143 20.606C9.45968 19.0893 8.06802 17.781 6.96802 16.681C5.86802 15.581 4.99302 14.5935 4.34302 13.7185C3.69302 12.8435 3.23885 12.0393 2.98052 11.306C2.72218 10.5726 2.59302 9.82264 2.59302 9.05597C2.59302 7.4893 3.11802 6.18097 4.16802 5.13097C5.21802 4.08097 6.52635 3.55597 8.09302 3.55597C8.95968 3.55597 9.78468 3.7393 10.568 4.10597C11.3514 4.47264 12.0264 4.9893 12.593 5.65597C13.1597 4.9893 13.8347 4.47264 14.618 4.10597C15.4014 3.7393 16.2264 3.55597 17.093 3.55597C18.6597 3.55597 19.968 4.08097 21.018 5.13097C22.068 6.18097 22.593 7.4893 22.593 9.05597C22.593 9.82264 22.4639 10.5726 22.2055 11.306C21.9472 12.0393 21.493 12.8435 20.843 13.7185C20.193 14.5935 19.318 15.581 18.218 16.681C17.118 17.781 15.7264 19.0893 14.043 20.606L12.593 21.906ZM12.593 19.206C14.193 17.7726 15.5097 16.5435 16.543 15.5185C17.5764 14.4935 18.393 13.6018 18.993 12.8435C19.593 12.0851 20.0097 11.4101 20.243 10.8185C20.4764 10.2268 20.593 9.6393 20.593 9.05597C20.593 8.05597 20.2597 7.22264 19.593 6.55597C18.9264 5.8893 18.093 5.55597 17.093 5.55597C16.3097 5.55597 15.5847 5.7768 14.918 6.21847C14.2514 6.66014 13.793 7.22264 13.543 7.90597H11.643C11.393 7.22264 10.9347 6.66014 10.268 6.21847C9.60135 5.7768 8.87635 5.55597 8.09302 5.55597C7.09302 5.55597 6.25968 5.8893 5.59302 6.55597C4.92635 7.22264 4.59302 8.05597 4.59302 9.05597C4.59302 9.6393 4.70968 10.2268 4.94302 10.8185C5.17635 11.4101 5.59302 12.0851 6.19302 12.8435C6.79302 13.6018 7.60968 14.4935 8.64302 15.5185C9.67635 16.5435 10.993 17.7726 12.593 19.206Z" fill="#1C1B1F"/>
</g>
</svg>
