<svg width="25" height="25" viewBox="0 0 25 25" fill="none" xmlns="http://www.w3.org/2000/svg">
<mask id="mask0_644_3581" style="mask-type:alpha" maskUnits="userSpaceOnUse" x="0" y="0" width="25" height="25">
<rect x="0.734375" y="0.191528" width="24" height="24" fill="#D9D9D9"/>
</mask>
<g mask="url(#mask0_644_3581)">
<path d="M4.73438 20.1915V17.3915C4.73438 16.8249 4.88021 16.304 5.17188 15.829C5.46354 15.354 5.85104 14.9915 6.33438 14.7415C7.36771 14.2249 8.41771 13.8374 9.48438 13.579C10.551 13.3207 11.6344 13.1915 12.7344 13.1915C13.351 13.1915 13.9594 13.229 14.5594 13.304C15.1594 13.379 15.7594 13.4999 16.3594 13.6665L14.6844 15.3665C14.351 15.3165 14.026 15.2749 13.7094 15.2415C13.3927 15.2082 13.0677 15.1915 12.7344 15.1915C11.801 15.1915 10.876 15.304 9.95937 15.529C9.04271 15.754 8.13438 16.0915 7.23438 16.5415C7.08437 16.6249 6.96354 16.7415 6.87188 16.8915C6.78021 17.0415 6.73438 17.2082 6.73438 17.3915V18.1915H12.7344V20.1915H4.73438ZM14.7344 21.1915V18.1165L20.2594 12.6165C20.4094 12.4665 20.576 12.3582 20.7594 12.2915C20.9427 12.2249 21.126 12.1915 21.3094 12.1915C21.5094 12.1915 21.701 12.229 21.8844 12.304C22.0677 12.379 22.2344 12.4915 22.3844 12.6415L23.3094 13.5665C23.4427 13.7165 23.5469 13.8832 23.6219 14.0665C23.6969 14.2499 23.7344 14.4332 23.7344 14.6165C23.7344 14.7999 23.701 14.9874 23.6344 15.179C23.5677 15.3707 23.4594 15.5415 23.3094 15.6915L17.8094 21.1915H14.7344ZM16.2344 19.6915H17.1844L20.2094 16.6415L19.7594 16.1665L19.2844 15.7165L16.2344 18.7415V19.6915ZM19.7594 16.1665L19.2844 15.7165L20.2094 16.6415L19.7594 16.1665ZM12.7344 12.1915C11.6344 12.1915 10.6927 11.7999 9.90938 11.0165C9.12604 10.2332 8.73438 9.29153 8.73438 8.19153C8.73438 7.09153 9.12604 6.14986 9.90938 5.36653C10.6927 4.5832 11.6344 4.19153 12.7344 4.19153C13.8344 4.19153 14.776 4.5832 15.5594 5.36653C16.3427 6.14986 16.7344 7.09153 16.7344 8.19153C16.7344 9.29153 16.3427 10.2332 15.5594 11.0165C14.776 11.7999 13.8344 12.1915 12.7344 12.1915ZM12.7344 10.1915C13.2844 10.1915 13.7552 9.99569 14.1469 9.60403C14.5385 9.21236 14.7344 8.74153 14.7344 8.19153C14.7344 7.64153 14.5385 7.1707 14.1469 6.77903C13.7552 6.38736 13.2844 6.19153 12.7344 6.19153C12.1844 6.19153 11.7135 6.38736 11.3219 6.77903C10.9302 7.1707 10.7344 7.64153 10.7344 8.19153C10.7344 8.74153 10.9302 9.21236 11.3219 9.60403C11.7135 9.99569 12.1844 10.1915 12.7344 10.1915Z" fill="#1C1B1F"/>
</g>
</svg>
