<svg width="20" height="20" viewBox="0 0 20 20" fill="none" xmlns="http://www.w3.org/2000/svg">
<mask id="mask0_30_1239" style="mask-type:alpha" maskUnits="userSpaceOnUse" x="0" y="0" width="20" height="20">
<rect width="20" height="20" fill="#D9D9D9"/>
</mask>
<g mask="url(#mask0_30_1239)">
<path d="M15.3031 16.3637L10.5303 11.5909C10.1515 11.894 9.71593 12.1339 9.22351 12.3106C8.73108 12.4874 8.20709 12.5758 7.65154 12.5758C6.27527 12.5758 5.1105 12.0991 4.15722 11.1459C3.20394 10.1926 2.72729 9.0278 2.72729 7.65154C2.72729 6.27527 3.20394 5.1105 4.15722 4.15722C5.1105 3.20394 6.27527 2.72729 7.65154 2.72729C9.0278 2.72729 10.1926 3.20394 11.1459 4.15722C12.0991 5.1105 12.5758 6.27527 12.5758 7.65154C12.5758 8.20709 12.4874 8.73108 12.3106 9.22351C12.1339 9.71593 11.894 10.1515 11.5909 10.5303L16.3637 15.3031L15.3031 16.3637ZM7.65154 11.0606C8.59851 11.0606 9.40343 10.7292 10.0663 10.0663C10.7292 9.40343 11.0606 8.59851 11.0606 7.65154C11.0606 6.70457 10.7292 5.89964 10.0663 5.23676C9.40343 4.57389 8.59851 4.24245 7.65154 4.24245C6.70457 4.24245 5.89964 4.57389 5.23676 5.23676C4.57389 5.89964 4.24245 6.70457 4.24245 7.65154C4.24245 8.59851 4.57389 9.40343 5.23676 10.0663C5.89964 10.7292 6.70457 11.0606 7.65154 11.0606Z" fill="#1C1B1F"/>
</g>
</svg>
